<?xml version="1.0" standalone="no"?>
<!DOCTYPE svg PUBLIC "-//W3C//DTD SVG 20010904//EN"
 "http://www.w3.org/TR/2001/REC-SVG-20010904/DTD/svg10.dtd">
<svg version="1.0" xmlns="http://www.w3.org/2000/svg"
 width="700.000000pt" height="700.000000pt" viewBox="0 0 700.000000 700.000000"
 preserveAspectRatio="xMidYMid meet">
<metadata>
Created by potrace 1.11, written by Peter Selinger 2001-2013
</metadata>
<g transform="translate(0.000000,700.000000) scale(0.100000,-0.100000)"
fill="#000000" stroke="none">
<path d="M2895 6600 c-96 -22 -150 -66 -222 -177 -29 -46 -53 -85 -53 -88 0
-3 -5 -11 -10 -18 -6 -7 -41 -61 -78 -122 -62 -101 -196 -316 -467 -755 -56
-91 -157 -255 -225 -365 -68 -110 -128 -206 -134 -212 -7 -7 -38 -18 -71 -24
-182 -33 -353 -193 -399 -373 -56 -224 28 -447 214 -571 339 -225 793 0 814
405 3 58 -6 123 -28 200 -6 21 17 64 135 255 77 127 151 246 163 265 27 41 60
94 236 380 73 118 142 231 155 250 12 19 37 60 55 90 19 30 48 78 65 105 197
312 216 348 223 432 16 202 -177 369 -373 323z"/>
<path d="M3955 6597 c-67 -23 -101 -44 -146 -95 -58 -65 -78 -122 -76 -214 2
-57 8 -84 28 -123 24 -45 130 -218 806 -1310 l204 -329 -16 -58 c-62 -221 27
-456 219 -580 234 -151 562 -87 712 140 178 268 99 607 -178 760 -45 25 -167
64 -179 57 -4 -3 -16 2 -26 12 -10 10 -150 232 -312 493 -161 261 -304 491
-316 510 -13 19 -103 166 -201 325 -98 160 -194 307 -212 327 -68 75 -214 115
-307 85z"/>
<path d="M475 4453 c-149 -29 -267 -99 -361 -214 -31 -38 -82 -146 -98 -209
-20 -77 -14 -229 12 -301 54 -153 148 -261 284 -327 83 -41 126 -52 228 -60
l85 -7 7 -50 c5 -27 10 -66 13 -85 2 -19 7 -46 9 -60 3 -14 8 -43 11 -65 3
-22 8 -53 11 -70 3 -16 23 -138 45 -270 22 -132 42 -251 44 -265 2 -14 14 -83
25 -155 12 -71 23 -141 26 -155 2 -14 7 -41 9 -60 5 -32 17 -98 20 -110 0 -3
5 -30 9 -60 4 -30 9 -62 11 -70 2 -8 6 -33 9 -55 4 -23 8 -52 11 -65 3 -13 7
-42 10 -65 10 -67 16 -106 21 -129 4 -20 32 -188 39 -231 9 -62 37 -234 41
-255 3 -14 13 -74 24 -135 27 -155 27 -158 53 -212 72 -155 192 -257 357 -302
74 -21 84 -21 2075 -21 l2001 0 76 24 c130 40 227 110 296 215 56 83 81 151
98 266 3 17 9 55 14 85 5 30 12 69 14 85 37 223 68 416 72 440 3 17 7 39 8 50
2 11 6 34 9 50 6 30 15 82 23 140 3 25 22 143 60 370 3 17 19 111 35 210 16
99 32 191 34 205 2 14 25 151 50 305 58 358 54 336 60 365 7 37 17 102 18 123
1 14 11 17 57 18 30 0 66 2 80 5 14 2 36 6 50 8 89 15 201 78 281 159 110 112
167 270 155 429 -20 257 -204 460 -460 509 -27 5 -160 9 -296 9 l-247 0 7 -45
c8 -55 3 -166 -13 -262 -4 -30 -62 -165 -89 -211 -18 -32 -71 -95 -118 -142
-154 -155 -329 -224 -545 -216 -145 6 -213 23 -331 86 -155 82 -279 222 -342
388 -38 98 -48 160 -45 295 l2 107 -1018 0 -1019 0 3 -107 c5 -234 -72 -420
-237 -574 -146 -136 -316 -199 -521 -194 -138 3 -199 17 -317 73 -127 60 -265
194 -329 319 -69 137 -98 291 -80 443 l4 35 -255 1 c-140 1 -264 -1 -275 -3z
m1735 -1215 c71 -23 155 -91 186 -151 20 -40 41 -110 48 -162 8 -63 36 -244
46 -305 5 -30 11 -75 14 -100 4 -25 8 -55 10 -67 3 -11 7 -43 11 -70 9 -65 12
-87 24 -163 6 -36 13 -83 16 -105 3 -22 7 -49 10 -60 2 -11 7 -42 10 -70 4
-27 8 -61 11 -75 2 -14 11 -72 20 -130 8 -58 17 -114 18 -125 6 -36 18 -110
23 -135 2 -14 6 -70 8 -125 4 -95 3 -104 -24 -162 -124 -262 -488 -262 -607 2
-23 51 -26 63 -44 192 -6 39 -12 80 -14 90 -2 10 -7 43 -11 73 -4 30 -9 64
-11 75 -2 10 -6 37 -9 60 -3 22 -10 67 -15 100 -5 33 -12 78 -15 100 -3 22 -8
51 -10 65 -6 33 -12 76 -19 130 -3 25 -8 54 -10 65 -2 11 -7 42 -10 68 -4 27
-9 56 -11 65 -1 10 -6 40 -9 67 -4 28 -9 57 -11 65 -2 8 -7 38 -10 65 -5 46
-25 179 -45 300 -5 28 -8 82 -7 120 6 218 228 371 437 303z m1415 -9 c64 -24
142 -94 174 -156 11 -23 24 -65 29 -95 4 -29 7 -417 7 -863 -2 -881 1 -839
-58 -932 -78 -124 -254 -178 -399 -123 -78 29 -158 109 -189 187 l-22 58 -1
835 c0 778 1 839 18 888 37 110 146 203 256 220 73 11 117 7 185 -19z m1350
15 c54 -11 120 -51 164 -99 80 -87 102 -173 82 -317 -7 -45 -15 -99 -17 -118
-3 -19 -11 -75 -19 -125 -18 -109 -44 -285 -51 -340 -3 -22 -9 -62 -14 -90 -5
-27 -14 -86 -20 -130 -6 -44 -13 -91 -15 -104 -2 -13 -7 -45 -11 -70 -3 -25
-8 -57 -10 -71 -2 -14 -7 -41 -9 -60 -3 -19 -8 -51 -11 -70 -3 -19 -8 -51 -10
-70 -3 -19 -11 -78 -20 -130 -8 -52 -17 -111 -20 -130 -31 -191 -222 -321
-404 -274 -174 44 -279 193 -259 367 7 62 27 199 33 234 2 10 9 54 16 98 6 44
13 91 15 105 2 14 11 72 20 130 8 58 17 116 19 130 3 14 7 45 10 70 4 25 8 56
10 70 3 14 7 43 10 65 4 22 8 51 11 65 2 14 6 41 9 60 7 53 36 252 41 280 4
25 19 120 29 192 22 146 53 206 141 274 80 62 169 80 280 58z"/>
</g>
</svg>
